<svg width="251" height="172" xmlns="http://www.w3.org/2000/svg" xmlns:xlink="http://www.w3.org/1999/xlink">
  <defs>
    <path d="M122 171c67 0 121-37 121-82 0-12-14-23-44-31l-7-2c-9-2-16-10-17-20-2-24-20-36-53-36C55 0 0 43 0 89c0 45 55 82 122 82z" id="a"/>
  </defs>
  <g fill="none" fill-rule="evenodd">
    <g transform="translate(7)">
      <mask id="b" fill="#fff">
        <use xlink:href="#a"/>
      </mask>
      <use fill="#FFE0E0" xlink:href="#a"/>
      <g mask="url(#b)">
        <path d="M66 63l2 12H52l2-10c0-4-8-17-8-24 0-8 7-17 17-13s10 11 10 15 0 14-2 17c-2 2-3 3-5 3z" fill="#F9CDC0"/>
        <path d="M68 56c-2 1-3 1-5-1" stroke="#904B3D" stroke-width="1.1" stroke-linecap="round"/>
        <path d="M59 60h1l3 4 4 2-1-3-3-1-4-2z" fill-opacity=".1" fill="#000" fill-rule="nonzero"/>
        <path d="M71 47a1 1 0 110-2 1 1 0 010 2zM63 47a1 1 0 110-2 1 1 0 010 2z" fill="#372630"/>
        <path d="M69 44l-1 2 3 5-3 1M74 43h-4M59 43h6" stroke="#4D3544" stroke-width=".7" stroke-linecap="round"/>
        <path d="M73 47l2-6 2-7c0-3-1-4-5-6-1-3-2-5-4-6-3-1-5 2-7 2H50c-2 2 0 3-2 4l-5 3c0 2 2 5 1 7 0 2-2 4-1 7 0 2 3 4 4 6 0 2-1 5 1 5h3c-3-8-4-13-2-14 3-3 3 3 4 3s0-6 2-6h5c2-1 1-4 3-4h6l3 3 1 9z" fill="#343747" fill-rule="nonzero"/>
        <path d="M91 161l14 92 2 81H92l-9-78-15-55-13 57-9 78H32l1-83 8-94a77 77 0 0050 2z" fill="#C2421C" fill-rule="nonzero"/>
        <g fill-opacity=".3">
          <path d="M41 159l-1 12c5 2 11 3 18 3 11 1 22-3 33-9l-1-5a77 77 0 01-48-2l-1 1z" fill="#000" fill-rule="nonzero"/>
        </g>
        <path d="M62 74c-4 0-7-1-10-4-10 0-17 1-21 4l-2 2 2 26 10 56c0 5 19 13 31 11 11-1 19-5 20-9s4-5 5-10c0-3-1-22-6-55l-4-23-4-2H68c-1 3-3 4-6 4z" fill="#C2421C" fill-rule="nonzero"/>
        <path d="M35 86l-6 5 1 11 3 12 7 44 15-9-11-12-5-4-4-47z" fill-opacity=".3" fill="#000" fill-rule="nonzero"/>
        <path d="M40 159c0 4 20 12 31 10 12-1 20-5 21-9v-1c-4 4-11 7-21 8-10 0-20-3-31-9v1zM68 70c-2 3-4 4-7 4s-7-1-10-4h-2c1 4 5 7 11 7 5 0 10-3 11-7h-3z" fill="#FFF"/>
      </g>
    </g>
    <path d="M61 150c0 2-6-1-7 0l2 2c-2 1-5-1-7-1-2 1-4 3-6 2l-10-9 3-8 3 1c7 3 23 12 22 13z" fill="#F9BAA7"/>
    <path d="M38 138h12c1 1 0 2-4 3l-8-3z" fill="#F9BAA7"/>
    <path d="M36 76l-3 1c-6 4-32 30-33 37-1 6 28 28 30 30h4l5-7-1-1-1-3-18-19 15-14c14-11 3-25 2-24z" fill="#F3754F" fill-rule="nonzero"/>
    <path d="M34 139l-2 5h2l5-7-1-1-4 3z" fill="#FFF"/>
    <g>
      <path d="M119 14c1-1 4 5 5 5v-3c2 0 4 4 5 5 2 1 4 1 5 3l1 14-8 3v-2l-8-25z" fill="#F9BAA7"/>
      <path d="M128 39l-9-9c0-1 2-1 5 1l4 8z" fill="#F9BAA7"/>
      <path d="M90 78l3 9c7 1 41-1 46-5s-1-40-1-42l-2-1-1-2-8 2-1 1-1 3v26c-1 1-9 0-20-1-18 0-17 4-15 10z" fill="#F3754F" fill-rule="nonzero"/>
      <path d="M92 84l1 2 4 1c5 0 13 0 23-2h2l-14-1H92zM128 69l-1 2-5 1-16-2-5-1 14 1h10l3-1z" fill-opacity=".3" fill="#000" fill-rule="nonzero"/>
      <path d="M132 40l4-1-1-2-8 2-1 1h6z" fill="#FFF"/>
    </g>
    <g>
      <path d="M124 116h106c1 0 3 1 3 3v27c0 2-2 3-3 3H124c-2 0-3-1-3-3v-27c0-2 1-3 3-3z" fill="#F9BAA7" fill-rule="nonzero"/>
      <path d="M120 112h106c2 0 3 2 3 3v28c0 1-1 3-3 3H120l-3-3v-28l3-3z" stroke="#F9BAA7" stroke-width="1.5" fill="#FFF" fill-rule="nonzero"/>
      <g fill="#252629">
        <path d="M137 136v-4-1-1l-1 1-3 2-2-2 4-2h0v-1l-4-2 1-2 4 2v1h1v-5h2v5l1-1 3-2 1 2-3 2-1 1h1l3 2-1 2-3-2h-1v-1 6h-2zM153 136v-4-1-1 1h-1l-3 2-1-2 3-2h1l-1-1-3-2 1-2 3 2 1 1v-5h2v5h1v-1l4-2 1 2-3 2-1 1h-1 2l3 2-1 2-4-2-1-1v6h-2zM170 136v-4-1-1l-1 1-4 2-1-2 3-2h1l-1-1-3-2 1-2 4 2v1h1v-5h2v5l1-1 3-2 1 2-3 2-1 1h1l3 2-1 2-3-2h-1v-1 6h-2zM186 136v-4-1-1 1h-1l-3 2-1-2 3-2h1l-1-1-3-2 1-2 3 2 1 1v-5h2v5h1v-1l3-2 2 2-4 2v1h-1 1l4 2-2 2-3-2-1-1v6h-2zM202 136v-4-1l1-1-1 1-4 2-1-2 3-2h1l-1-1-3-2 1-2 4 2v1h0v-5h3v5l1-1 3-2 1 2-3 2-1 1h-1 2l3 2-1 2-3-2h-1v-1 6h-3z"/>
      </g>
    </g>
  </g>
</svg>